<?xml version="1.0" encoding="utf-8"?>
<!-- Generator: Adobe Illustrator 15.0.2, SVG Export Plug-In . SVG Version: 6.00 Build 0)  -->
<!DOCTYPE svg PUBLIC "-//W3C//DTD SVG 1.1//EN" "http://www.w3.org/Graphics/SVG/1.1/DTD/svg11.dtd">
<svg version="1.1" id="Слой_1" xmlns="http://www.w3.org/2000/svg" xmlns:xlink="http://www.w3.org/1999/xlink" x="0px" y="0px"
	 width="600px" height="300px" viewBox="0 0 600 300" enable-background="new 0 0 600 300" xml:space="preserve">
<path fill="#00001C" d="M447.754,44.851c-1.809-0.766-4.503,0-5.088,1.875c-0.811-0.862-2.688-0.487-3.219,0.568
	c0.354-1.016-0.284-2.265-1.316-2.57s-2.407,0.154-2.662,1.2c0.599-1.637,1.05-3.354,1.025-5.097
	c-0.023-1.743-0.56-3.523-1.734-4.811c-1.174-1.288-3.038-1.999-4.724-1.556c-1.687,0.442-3.005,1.973-2.77,3.699
	c-0.903-0.954-2.452-1.222-3.623-0.625c-1.171,0.597-1.865,2.007-1.624,3.299c-0.285-0.446-0.839-0.705-1.364-0.639
	c-0.524,0.066-0.796,0.523-0.962,1.025c-0.039-1.016-0.191-2.063-0.737-2.921s-1.566-1.478-2.566-1.291
	c-0.998,0.188-1.847,1.185-1.39,2.093c-1.689-1.295-4.073-1.619-6.047-0.824c-1.973,0.796-3.428,2.685-3.747,4.788
	c-0.035-1.072-0.677-2.105-1.624-2.61s-2.193-0.689-3.104-0.122c0.146-0.606-0.058-1.284-0.516-1.708
	c-0.457-0.424-1.149-0.578-1.743-0.386c0.275-1.104-0.104-2.472-1.033-3.126c0.45-0.915,0.334-2.083-0.289-2.891
	s-1.78-1.519-2.781-1.315c0.137-1.682-0.846-3.399-2.363-4.134c-1.519-0.736-3.607-0.383-4.843,0.767
	c-0.642-2.893-3.8-4.769-6.757-4.581c-2.958,0.188-5.602,2.061-7.41,4.408c-1.771,2.3-2.718,5.186-1.535,7.837
	c-1.257-0.456-2.803,0.639-2.789,1.975c-0.651-0.291-1.61,0.734-1.355,1.399c-1.937-0.974-4.447-0.666-6.092,0.747
	c-1.646,1.413-2.19,3.842-1.52,5.904c-0.797-0.904-2.142-1.282-3.293-0.922c-1.149,0.359-2.095,1.521-2.235,2.718
	c-0.566-0.463-1.397-0.576-2.067-0.279c-0.669,0.296-1.222,1.239-1.261,1.97c-1.031-4.29-6.646-6.042-10.807-4.576
	c-4.162,1.466-7.482,5.264-10.237,8.71h4.852c6.786,1.721,13.889,2.198,20.843,1.386c0.825,0.807,2.424,0.661,3.37,0.001
	c0.411-0.287,0.743-0.7,1.215-0.87c0.815-0.295,1.668,0.236,2.467,0.575c1.976,0.838,4.414,0.451,6.033-0.958
	c3.395,3.007,8.789,3.871,12.607,1.423c0.653,0.716,2.421,0.519,3.372,0.331c0.95-0.188,1.865-0.586,2.834-0.631
	c1.09-0.051,2.144,0.347,3.214,0.563c1.069,0.216,2.295,0.211,3.116-0.508c3.447,1.867,8.055,1.725,11.541-0.069
	c1.812,0.788,3.942,0.66,5.727-0.187c0.947,1.002,2.699,1.212,3.782,0.358c0.795,0.623,2.025,0.605,2.803-0.039
	c4.643,2.431,10.822,2.169,15.455-0.278c2.952,1.733,6.951,2.065,10.137,0.814c0.576-0.226,1.167-0.575,1.611-1.016
	c0.521,0.232,1.071,0.357,1.835,0.103c1.864-0.62,3.442-2.196,3.818-4.123S449.562,45.616,447.754,44.851"/>
<path fill="#00001C" d="M346.746,85.171c-2.979-0.481-13.012-2.715-18.973-5.797c-1.672-0.864-4.521-2.904-6.367-3.271
	c-0.264-0.052-0.543-0.09-0.831-0.119c0.763-2.022,1.107-4.202,0.967-6.359c-0.115-1.779-0.607-3.644-1.913-4.857
	c-1.308-1.215-3.332-1.393-4.551-0.091c0.888-4.479-1.836-9.4-6.102-11.028s-9.445,0.8-11.767,4.732
	c0.821-2.13,1.422-4.484,0.792-6.677c-0.631-2.193-2.885-4.052-5.104-3.516c-0.646-1.261-1.376-2.607-2.657-3.213
	c-1.281-0.605-3.52-0.178-3.582,1.238c-0.063-1.449-1.16-2.792-2.567-3.145s-2.573,0.598-3.312,1.846
	c-0.901-2.756-2.228-5.436-4.296-7.467c-2.069-2.032-4.963-3.348-7.849-3.057c-2.885,0.291-5.628,2.41-6.192,5.253
	c-0.839-0.449-1.919-0.409-2.723,0.102c-0.804,0.511-0.621,1.375-0.569,2.327c-4.629-0.806-9.626,1.014-12.654,4.606
	c-3.028,3.593-3.904,8.88-2.327,13.306c-1.568-1.124-3.709-1.397-5.51-0.706c-1.801,0.692-3.207,2.33-3.62,4.214
	c-0.279-1.128-1.448-1.963-2.605-1.86c-1.157,0.103-1.813,0.396-1.889,1.556c-4.345-6.585-13.368-9.643-20.821-7.055
	c-7.454,2.587-12.339,10.593-11.668,18.455c-2.703-1.71-6.099-2.286-9.214-1.561c-3.115,0.724-5.909,2.738-7.58,5.465
	c-0.907,1.479-1.473,3.415-0.605,4.917c-1.922-1.278-4.911-0.912-6.504,0.759c-3.98-1.614-4.665-0.597-8.582,1.165
	c-5.872,2.641-11.541,2.641-15.835,2.641h12.748c13.921,0,20.188,3.626,28.884,1.372c11.958,3.312,24.499,3.077,36.432-0.322
	c3.984,2.071,8.626,1.966,12.693,0.063c9.718,2.389,19.941,2.129,29.562-0.627c2.102,1.09,4.74,0.861,6.868-0.177
	c6.879,2.449,14.394,2.439,21.499,0.748c3.938,1.961,8.493,1.741,12.438-0.204c6.568,1.916,13.567,1.823,20.188,0.099
	c2.953,0.879,6.467,0.813,9.411-0.095c1.453-0.448,3.028-0.709,4.759-0.856h38.243C371.211,87.482,358.941,86.608,346.746,85.171"/>
</svg>
