<?xml version="1.0" encoding="utf-8"?>
<!-- Generator: Adobe Illustrator 15.0.2, SVG Export Plug-In . SVG Version: 6.00 Build 0)  -->
<!DOCTYPE svg PUBLIC "-//W3C//DTD SVG 1.1//EN" "http://www.w3.org/Graphics/SVG/1.1/DTD/svg11.dtd">
<svg version="1.1" id="Слой_1" xmlns="http://www.w3.org/2000/svg" xmlns:xlink="http://www.w3.org/1999/xlink" x="0px" y="0px"
	 width="600px" height="300px" viewBox="0 0 600 300" enable-background="new 0 0 600 300" xml:space="preserve">
<path fill="#000033" d="M591.861,66.216c-3.572-1.512-8.895-0.001-10.049,3.702c-1.602-1.702-5.311-0.962-6.359,1.123
	c0.701-2.007-0.561-4.473-2.6-5.076s-4.756,0.304-5.258,2.37c1.182-3.234,2.072-6.626,2.025-10.068
	c-0.047-3.443-1.105-6.959-3.426-9.503s-6.002-3.948-9.332-3.074c-3.33,0.873-5.936,3.896-5.471,7.307
	c-1.783-1.885-4.844-2.413-7.156-1.235c-2.313,1.178-3.684,3.964-3.207,6.516c-0.564-0.881-1.658-1.393-2.695-1.263
	c-1.037,0.131-1.572,1.033-1.9,2.026c-0.078-2.006-0.379-4.076-1.457-5.77c-1.078-1.694-3.094-2.919-5.068-2.549
	c-1.973,0.37-3.648,2.341-2.746,4.134c-3.336-2.557-8.045-3.197-11.943-1.626c-3.898,1.572-6.771,5.302-7.402,9.458
	c-0.07-2.119-1.338-4.159-3.209-5.157c-1.871-0.997-4.332-1.362-6.131-0.24c0.289-1.198-0.115-2.537-1.02-3.375
	c-0.902-0.838-2.27-1.141-3.443-0.763c0.545-2.179-0.203-4.882-2.041-6.174c0.891-1.808,0.66-4.114-0.57-5.71
	c-1.23-1.597-3.518-3-5.494-2.599c0.27-3.322-1.67-6.714-4.668-8.167c-3-1.453-7.127-0.755-9.566,1.515
	c-1.268-5.714-7.506-9.419-13.348-9.048s-11.064,4.07-14.637,8.707c-3.5,4.543-5.369,10.244-3.033,15.481
	c-2.482-0.901-5.535,1.261-5.508,3.901c-1.287-0.575-3.182,1.45-2.678,2.764c-3.826-1.924-8.785-1.316-12.033,1.475
	c-3.25,2.792-4.328,7.59-3.002,11.663c-1.574-1.786-4.23-2.531-6.504-1.822c-2.271,0.71-4.139,3.005-4.416,5.369
	c-1.119-0.915-2.762-1.137-4.084-0.552s-2.414,2.448-2.49,3.892c-2.037-8.474-13.127-11.934-21.348-9.039
	s-14.779,10.398-20.221,17.205h9.582c13.406,3.4,27.436,4.342,41.172,2.737c1.631,1.593,4.787,1.306,6.656,0.003
	c0.813-0.566,1.469-1.383,2.4-1.719c1.611-0.583,3.295,0.467,4.873,1.136c3.902,1.656,8.719,0.891,11.918-1.892
	c6.705,5.94,17.361,7.645,24.902,2.811c1.291,1.415,4.783,1.026,6.662,0.654c1.877-0.372,3.684-1.157,5.598-1.247
	c2.152-0.101,4.234,0.685,6.348,1.112c2.113,0.427,4.535,0.417,6.156-1.004c6.811,3.688,15.91,3.407,22.797-0.136
	c3.578,1.556,7.789,1.304,11.313-0.369c1.871,1.979,5.332,2.395,7.471,0.707c1.57,1.23,4.002,1.196,5.537-0.077
	c9.17,4.802,21.377,4.284,30.529-0.55c5.83,3.423,13.73,4.079,20.023,1.609c1.137-0.446,2.305-1.137,3.182-2.007
	c1.029,0.459,2.117,0.704,3.625,0.202c3.682-1.224,6.801-4.337,7.543-8.144C597.402,72.033,595.434,67.728,591.861,66.216"/>
<path fill="#000033" d="M392.338,145.863c-5.883-0.951-25.701-5.363-37.477-11.452c-3.302-1.707-8.932-5.737-12.576-6.462
	c-0.521-0.104-1.074-0.178-1.642-0.235c1.505-3.995,2.187-8.301,1.909-12.562c-0.229-3.515-1.2-7.198-3.78-9.596
	c-2.581-2.399-6.581-2.751-8.988-0.179c1.753-8.847-3.626-18.569-12.053-21.783c-8.427-3.215-18.657,1.58-23.242,9.347
	c1.621-4.207,2.808-8.857,1.563-13.19c-1.245-4.333-5.697-8.005-10.08-6.946c-1.275-2.491-2.719-5.15-5.25-6.347
	c-2.53-1.195-6.951-0.351-7.075,2.445c-0.126-2.862-2.292-5.516-5.072-6.211c-2.778-0.696-5.081,1.181-6.54,3.646
	c-1.781-5.444-4.4-10.738-8.486-14.751c-4.088-4.013-9.804-6.613-15.503-6.039c-5.699,0.574-11.118,4.76-12.232,10.378
	c-1.658-0.888-3.792-0.809-5.379,0.2c-1.588,1.009-1.226,2.717-1.125,4.596c-9.144-1.591-19.014,2.002-24.996,9.099
	c-5.981,7.097-7.713,17.54-4.597,26.283c-3.098-2.219-7.327-2.76-10.884-1.393c-3.557,1.367-6.335,4.601-7.15,8.324
	c-0.55-2.228-2.86-3.877-5.145-3.674c-2.286,0.203-3.582,0.782-3.731,3.072c-8.583-13.008-26.406-19.047-41.128-13.935
	c-14.723,5.111-24.373,20.925-23.048,36.454c-5.339-3.378-12.047-4.515-18.2-3.084c-6.153,1.43-11.672,5.409-14.973,10.795
	c-1.791,2.923-2.909,6.745-1.194,9.714c-3.798-2.524-9.702-1.802-12.848,1.499c-7.861-3.189-9.214-1.179-16.951,2.301
	c-11.598,5.218-22.797,5.218-31.28,5.218h25.182c27.5,0,39.879,7.163,57.055,2.71c23.622,6.541,48.393,6.078,71.966-0.636
	c7.87,4.091,17.039,3.884,25.073,0.125c19.197,4.718,39.39,4.205,58.394-1.24c4.151,2.153,9.362,1.702,13.565-0.35
	c13.59,4.837,28.434,4.817,42.467,1.477c7.777,3.874,16.777,3.438,24.57-0.403c12.975,3.785,26.799,3.602,39.879,0.196
	c5.832,1.735,12.774,1.606,18.59-0.188c2.869-0.886,5.982-1.4,9.4-1.691h75.542C440.665,150.427,416.428,148.7,392.338,145.863"/>
</svg>
